<svg width="512" height="512" viewBox="0 0 512 512" fill="none" xmlns="http://www.w3.org/2000/svg">
<path d="M462 50H50V462H462V50Z" fill="#F7DF1E"/>
<path d="M326.956 372.065C335.239 385.631 346.015 395.602 365.075 395.602C381.086 395.602 391.314 387.575 391.314 376.485C391.314 363.194 380.805 358.487 363.182 350.755L353.522 346.597C325.638 334.682 307.114 319.754 307.114 288.198C307.114 259.129 329.195 237 363.704 237C388.272 237 405.934 245.577 418.662 268.033L388.572 287.412C381.947 275.497 374.8 270.802 363.704 270.802C352.386 270.802 345.213 278.004 345.213 287.412C345.213 299.04 352.392 303.747 368.971 310.949L378.631 315.1C411.463 329.222 430 343.618 430 375.987C430 410.883 402.671 430 365.969 430C330.083 430 306.898 412.847 295.554 390.364L326.956 372.065ZM190.454 375.424C196.524 386.227 202.046 395.36 215.323 395.36C228.018 395.36 236.027 390.377 236.027 371.005V239.213H274.667V371.528C274.667 411.662 251.209 429.928 216.967 429.928C186.029 429.928 168.112 413.868 159 394.525L190.454 375.424Z" fill="black"/>
</svg>
