<svg width="512" height="461" viewBox="0 0 512 461" fill="none" xmlns="http://www.w3.org/2000/svg">
<g clip-path="url(#clip0_95_100)">
<path d="M256 279.06C282.93 279.06 304.762 257.236 304.762 230.316C304.762 203.395 282.93 181.572 256 181.572C229.069 181.572 207.238 203.395 207.238 230.316C207.238 257.236 229.069 279.06 256 279.06Z" fill="#149ECA"/>
<path d="M256 339.99C390.652 339.99 499.809 290.887 499.809 230.316C499.809 169.744 390.652 120.642 256 120.642C121.348 120.642 12.1904 169.744 12.1904 230.316C12.1904 290.887 121.348 339.99 256 339.99Z" stroke="#149ECA" stroke-width="18"/>
<path d="M160.985 285.153C228.311 401.723 325.429 471.67 377.905 441.384C430.38 411.098 418.342 292.048 351.015 175.479C283.689 58.909 186.571 -11.038 134.095 19.2477C81.6197 49.5334 93.6585 168.583 160.985 285.153Z" stroke="#149ECA" stroke-width="18"/>
<path d="M160.985 175.479C93.6584 292.048 81.6196 411.098 134.095 441.384C186.571 471.67 283.689 401.723 351.015 285.153C418.341 168.583 430.38 49.5334 377.905 19.2477C325.429 -11.038 228.311 58.909 160.985 175.479Z" stroke="#149ECA" stroke-width="18"/>
</g>
<defs>
<clipPath id="clip0_95_100">
<rect width="512" height="460.632" fill="white"/>
</clipPath>
</defs>
</svg>
